<svg width="245.000000" height="64.000000" viewBox="0 0 245 64" fill="none" xmlns="http://www.w3.org/2000/svg" xmlns:xlink="http://www.w3.org/1999/xlink">
	<desc>
			Created with Pixso.
	</desc>
	<defs/>
	<path id="ulyalazutina" d="M67.64 26.67L67.48 26.67L67.48 27L72.22 27L72.22 26.67L72.06 26.67Q71.84 26.67 71.64 26.6Q71.28 26.46 71.01 26.07Q70.62 25.46 70.4 24.82L63.23 5.49L55.9 25.01Q55.64 25.68 55.24 26.18Q54.85 26.66 54.45 26.67Q54.44 26.67 54.43 26.67L54.26 26.67L54.26 27L57.82 27L57.82 26.67L57.66 26.67Q57.63 26.67 57.59 26.67Q57.37 26.64 57.18 26.44Q57.16 26.42 57.14 26.39Q56.95 26.16 56.95 25.78Q56.95 25.56 57.05 25.3L59.83 17.65L65.44 17.65L68.31 25.42Q68.41 25.71 68.41 25.97Q68.41 26.29 68.25 26.46Q68.06 26.67 67.64 26.67ZM108.44 26.67L108.28 26.67L108.28 27L113.02 27L113.02 26.67L112.86 26.67Q112.64 26.67 112.44 26.6Q112.08 26.46 111.81 26.07Q111.42 25.46 111.2 24.82L104.03 5.49L96.7 25.01Q96.44 25.68 96.04 26.18Q95.65 26.66 95.25 26.67Q95.24 26.67 95.23 26.67L95.06 26.67L95.06 27L98.62 27L98.62 26.67L98.46 26.67Q98.43 26.67 98.39 26.67Q98.17 26.64 97.98 26.44Q97.96 26.42 97.94 26.39Q97.75 26.16 97.75 25.78Q97.75 25.56 97.85 25.3L100.64 17.65L106.24 17.65L109.11 25.42Q109.21 25.71 109.21 25.97Q109.21 26.29 109.05 26.46Q108.86 26.67 108.44 26.67ZM225.02 26.67L224.86 26.67L224.86 27L229.59 27L229.59 26.67L229.44 26.67Q229.21 26.67 229.02 26.6Q228.65 26.46 228.39 26.07Q227.99 25.46 227.77 24.82L220.6 5.49L213.27 25.01Q213.02 25.68 212.62 26.18Q212.23 26.66 211.83 26.67Q211.82 26.67 211.8 26.67L211.64 26.67L211.64 27L215.2 27L215.2 26.67L215.04 26.67Q215 26.67 214.97 26.67Q214.75 26.64 214.55 26.44Q214.53 26.42 214.51 26.39Q214.33 26.16 214.33 25.78Q214.33 25.56 214.43 25.3L217.21 17.65L222.81 17.65L225.69 25.42Q225.79 25.71 225.79 25.97Q225.79 26.29 225.63 26.46Q225.44 26.67 225.02 26.67ZM5.98 5.88L1.43 5.88L1.43 6.2L1.6 6.2Q1.63 6.2 1.66 6.2Q1.85 6.23 2.01 6.38Q2.21 6.55 2.35 6.81Q2.37 6.85 2.39 6.89Q2.5 7.1 2.55 7.35Q2.62 7.64 2.62 7.86L2.62 20.5Q2.62 22.52 3.13 23.85Q3.64 25.17 4.53 25.94Q4.68 26.06 4.82 26.17Q5.63 26.75 6.67 27.01Q7.9 27.32 9.34 27.32Q10.68 27.32 11.88 27.03Q12.74 26.82 13.44 26.37Q13.72 26.19 13.98 25.97Q14.88 25.21 15.39 23.88Q15.9 22.55 15.9 20.46L15.9 7.86Q15.9 7.64 15.96 7.35Q16.02 7.1 16.12 6.89Q16.14 6.85 16.17 6.81Q16.32 6.55 16.49 6.38Q16.57 6.29 16.68 6.25Q16.79 6.2 16.92 6.2L17.08 6.2L17.08 5.88L13.6 5.88L13.6 6.2L13.75 6.2Q13.81 6.2 13.87 6.21Q14.03 6.25 14.17 6.38Q14.36 6.55 14.5 6.81Q14.55 6.89 14.59 6.98Q14.67 7.15 14.71 7.35Q14.78 7.64 14.78 7.86L14.78 20.57Q14.78 21.56 14.61 22.58Q14.47 23.49 14.05 24.24Q14 24.33 13.94 24.42Q13.92 24.46 13.9 24.49Q13.4 25.26 12.47 25.75Q11.52 26.26 9.92 26.26Q8.47 26.26 7.48 25.83Q6.56 25.42 5.97 24.73Q5.92 24.68 5.88 24.63Q5.28 23.86 5.02 22.81Q4.76 21.75 4.76 20.5L4.76 7.86Q4.76 7.64 4.82 7.35Q4.89 7.06 5.03 6.82Q5.03 6.81 5.03 6.81Q5.18 6.55 5.37 6.38Q5.49 6.27 5.63 6.23Q5.72 6.2 5.82 6.2L5.98 6.2L5.98 5.88ZM23.8 26.67L23.64 26.67L23.64 27L36.77 27L36.77 22.96L36.45 22.96Q36.45 23.38 36.3 23.88Q36.28 23.94 36.26 24Q36.12 24.43 35.85 24.81Q35.74 24.96 35.61 25.1Q35.38 25.34 35.09 25.53Q35.05 25.55 35.01 25.58Q34.59 25.81 34.05 25.81L27.03 25.81L27.03 7.86Q27.03 7.64 27.11 7.35Q27.2 7.06 27.32 6.81Q27.45 6.55 27.64 6.38Q27.75 6.28 27.88 6.23Q27.98 6.2 28.09 6.2L28.25 6.2L28.25 5.88L23.64 5.88L23.64 6.2L23.8 6.2Q23.93 6.2 24.04 6.24Q24.15 6.29 24.25 6.38Q24.45 6.55 24.59 6.81Q24.6 6.83 24.62 6.86Q24.74 7.09 24.81 7.35Q24.89 7.64 24.89 7.86L24.89 24.98Q24.89 25.24 24.81 25.53Q24.8 25.58 24.78 25.64Q24.7 25.86 24.59 26.07Q24.45 26.32 24.25 26.5Q24.16 26.58 24.06 26.63Q23.94 26.67 23.8 26.67ZM41.63 5.88L37.21 5.88L37.21 6.2L37.37 6.2Q37.63 6.2 37.91 6.41Q38.2 6.61 38.46 6.9Q38.57 7.02 38.67 7.15Q38.81 7.32 38.94 7.51Q39.16 7.83 39.33 8.08L44.47 16.92L44.47 24.92Q44.47 25.17 44.41 25.48Q44.4 25.54 44.38 25.6Q44.32 25.83 44.2 26.05Q44.06 26.32 43.87 26.5Q43.78 26.58 43.67 26.63Q43.56 26.67 43.42 26.67L43.26 26.67L43.26 27L47.83 27L47.83 26.67L47.68 26.67Q47.57 26.67 47.48 26.64Q47.34 26.6 47.22 26.49Q47.04 26.29 46.9 26.02Q46.78 25.75 46.7 25.46Q46.62 25.17 46.62 24.92L46.62 16.63L51.61 7.99Q51.97 7.38 52.46 6.79Q52.96 6.2 53.44 6.2L53.44 5.88L50.01 5.88L50.01 6.2Q50.08 6.2 50.38 6.32Q50.42 6.34 50.45 6.36Q50.69 6.51 50.75 6.96Q50.75 7.15 50.7 7.28Q50.65 7.41 50.52 7.67L45.91 15.64L41.12 7.22Q41.02 7.03 41.02 6.87Q41.02 6.6 41.16 6.45Q41.18 6.42 41.21 6.39Q41.37 6.26 41.56 6.21Q41.6 6.2 41.63 6.2L41.63 5.88ZM77.82 26.67L77.66 26.67L77.66 27L90.78 27L90.78 22.96L90.46 22.96Q90.46 23.38 90.31 23.88Q90.29 23.94 90.27 24Q90.13 24.43 89.87 24.81Q89.76 24.96 89.63 25.1Q89.4 25.34 89.11 25.53Q89.07 25.55 89.03 25.58Q88.61 25.81 88.06 25.81L81.05 25.81L81.05 7.86Q81.05 7.64 81.13 7.35Q81.21 7.06 81.34 6.81Q81.47 6.55 81.66 6.38Q81.76 6.28 81.89 6.23Q81.99 6.2 82.11 6.2L82.27 6.2L82.27 5.88L77.66 5.88L77.66 6.2L77.82 6.2Q77.95 6.2 78.06 6.24Q78.17 6.29 78.27 6.38Q78.46 6.55 78.6 6.81Q78.62 6.83 78.63 6.86Q78.76 7.09 78.83 7.35Q78.91 7.64 78.91 7.86L78.91 24.98Q78.91 25.24 78.83 25.53Q78.81 25.58 78.79 25.64Q78.72 25.86 78.6 26.07Q78.46 26.32 78.27 26.5Q78.18 26.58 78.07 26.63Q77.96 26.67 77.82 26.67ZM128.19 7L117.57 27L131.26 27L131.26 23.38L130.94 23.38Q130.94 23.76 130.81 24.2Q130.79 24.27 130.76 24.35Q130.64 24.7 130.42 25.01Q130.27 25.24 130.06 25.43Q129.93 25.54 129.78 25.64Q129.73 25.67 129.67 25.7Q129.33 25.88 128.89 25.88L120.67 25.88L131.29 5.88L118.39 5.88L118.39 9.46L118.71 9.46Q118.71 9.07 118.84 8.64Q118.92 8.37 119.06 8.12Q119.13 7.98 119.22 7.85Q119.37 7.63 119.56 7.46Q119.7 7.34 119.86 7.24Q119.93 7.19 120.01 7.16Q120.34 7 120.76 7L128.19 7ZM141.56 5.88L137.02 5.88L137.02 6.2L137.18 6.2Q137.22 6.2 137.25 6.2Q137.43 6.23 137.6 6.38Q137.79 6.55 137.93 6.81Q137.95 6.85 137.97 6.89Q138.08 7.1 138.13 7.35Q138.2 7.64 138.2 7.86L138.2 20.5Q138.2 22.52 138.71 23.85Q139.23 25.17 140.12 25.94Q140.26 26.06 140.41 26.17Q141.21 26.75 142.25 27.01Q143.49 27.32 144.92 27.32Q146.27 27.32 147.46 27.03Q148.32 26.82 149.03 26.37Q149.31 26.19 149.56 25.97Q150.46 25.21 150.97 23.88Q151.49 22.55 151.49 20.46L151.49 7.86Q151.49 7.64 151.55 7.35Q151.6 7.1 151.71 6.89Q151.73 6.85 151.75 6.81Q151.9 6.55 152.07 6.38Q152.16 6.29 152.26 6.25Q152.37 6.2 152.51 6.2L152.67 6.2L152.67 5.88L149.18 5.88L149.18 6.2L149.34 6.2Q149.4 6.2 149.45 6.21Q149.61 6.25 149.75 6.38Q149.95 6.55 150.09 6.81Q150.14 6.89 150.18 6.98Q150.26 7.15 150.3 7.35Q150.36 7.64 150.36 7.86L150.36 20.57Q150.36 21.56 150.2 22.58Q150.06 23.49 149.63 24.24Q149.58 24.33 149.52 24.42Q149.5 24.46 149.49 24.49Q148.98 25.26 148.06 25.75Q147.1 26.26 145.5 26.26Q144.06 26.26 143.06 25.83Q142.14 25.42 141.55 24.73Q141.5 24.68 141.46 24.63Q140.86 23.86 140.6 22.81Q140.35 21.75 140.35 20.5L140.35 7.86Q140.35 7.64 140.41 7.35Q140.48 7.06 140.61 6.82Q140.62 6.81 140.62 6.81Q140.77 6.55 140.95 6.38Q141.07 6.27 141.21 6.23Q141.3 6.2 141.4 6.2L141.56 6.2L141.56 5.88ZM167.48 26.67L167.33 26.67Q167.2 26.67 167.09 26.63Q166.98 26.58 166.89 26.49Q166.72 26.29 166.57 26.03Q166.55 26 166.54 25.97Q166.42 25.74 166.37 25.48Q166.3 25.17 166.3 24.92L166.3 7.06L170.08 7.06Q170.56 7.06 170.93 7.26Q170.95 7.27 170.97 7.28Q171.34 7.5 171.58 7.81Q171.6 7.83 171.61 7.85Q171.77 8.05 171.87 8.28Q171.94 8.43 171.99 8.58Q172.12 8.98 172.12 9.36L172.44 9.36L172.44 5.88L158.08 5.88L158.08 9.36L158.4 9.36Q158.4 8.98 158.52 8.58Q158.59 8.37 158.7 8.18Q158.79 8 158.9 7.85Q158.95 7.79 158.99 7.74Q159.23 7.47 159.55 7.28L159.55 7.28Q159.93 7.06 160.44 7.06L164.15 7.06L164.15 24.92Q164.15 25.17 164.09 25.48Q164.05 25.69 163.96 25.88Q163.93 25.96 163.88 26.03Q163.74 26.29 163.55 26.49Q163.44 26.59 163.32 26.64Q163.22 26.67 163.1 26.67L162.94 26.67L162.94 27L167.48 27L167.48 26.67ZM182.42 5.88L177.85 5.88L177.85 6.2L178.01 6.2Q178.14 6.2 178.24 6.24Q178.36 6.29 178.46 6.38Q178.65 6.55 178.79 6.81Q178.84 6.89 178.88 6.98Q178.96 7.15 179 7.35Q179.06 7.64 179.06 7.86L179.06 24.92Q179.06 25.17 179 25.48Q178.99 25.54 178.97 25.6Q178.91 25.83 178.79 26.05Q178.65 26.32 178.46 26.5Q178.37 26.58 178.26 26.63Q178.15 26.67 178.01 26.67L177.85 26.67L177.85 27L182.42 27L182.42 26.67L182.27 26.67Q182.14 26.67 182.03 26.63Q181.92 26.58 181.83 26.49Q181.66 26.29 181.51 26.03Q181.49 26 181.48 25.97Q181.36 25.74 181.31 25.48Q181.24 25.17 181.24 24.92L181.24 7.86Q181.24 7.64 181.32 7.33Q181.4 7.03 181.53 6.79Q181.66 6.55 181.85 6.38Q182 6.24 182.17 6.21Q182.22 6.2 182.27 6.2L182.42 6.2L182.42 5.88ZM192.54 26.67L192.38 26.67Q192.29 26.67 192.2 26.65Q192.06 26.61 191.93 26.49Q191.74 26.29 191.6 26.03Q191.45 25.78 191.38 25.48Q191.32 25.17 191.32 24.92L191.32 8.63L202.91 27L204.89 27L204.89 7.86Q204.89 7.64 204.95 7.35Q205.01 7.1 205.11 6.89Q205.14 6.85 205.16 6.81Q205.31 6.55 205.49 6.38Q205.6 6.28 205.73 6.23Q205.83 6.2 205.95 6.2L206.11 6.2L206.11 5.88L202.52 5.88L202.52 6.2L202.68 6.2Q202.81 6.2 202.92 6.24Q203.03 6.29 203.13 6.38Q203.32 6.55 203.46 6.81Q203.48 6.83 203.49 6.86Q203.62 7.09 203.69 7.35Q203.77 7.64 203.77 7.86L203.77 24.18L192.16 5.88L188.92 5.88L188.92 6.2L189.09 6.2Q189.3 6.2 189.47 6.28Q189.55 6.32 189.63 6.38Q189.73 6.46 189.82 6.56Q189.91 6.67 189.98 6.81Q190 6.85 190.02 6.9Q190.12 7.11 190.16 7.35Q190.2 7.64 190.2 7.86L190.2 24.92Q190.2 25.17 190.12 25.48Q190.04 25.78 189.92 26.03Q189.86 26.16 189.78 26.27Q189.69 26.38 189.58 26.49Q189.38 26.67 189.17 26.67Q189.16 26.67 189.15 26.67L188.99 26.67L188.99 27L192.54 27L192.54 26.67ZM65.08 16.57L60.15 16.57L62.62 9.88L65.08 16.57ZM105.89 16.57L100.96 16.57L103.42 9.88L105.89 16.57ZM222.46 16.57L217.53 16.57L219.99 9.88L222.46 16.57Z" fill="#FFB782" fill-opacity="1.000000" fill-rule="evenodd"/>
	<line id="Line 1" x1="179.000000" y1="39.000000" x2="50.000000" y2="39.000000" stroke="#FFB782" stroke-opacity="1.000000" stroke-width="2.000000"/>
	<line id="Line 2" x1="157.000000" y1="47.000000" x2="72.000000" y2="47.000000" stroke="#FFB782" stroke-opacity="1.000000" stroke-width="2.000000"/>
	<line id="Line 3" x1="143.000000" y1="56.000000" x2="85.000000" y2="56.000000" stroke="#FFB782" stroke-opacity="1.000000" stroke-width="2.000000"/>
</svg>
